<?xml version="1.0" encoding="utf-8"?>
<svg viewBox="395.269 0 578.841 287.249" width="578.841" height="287.249" xmlns="http://www.w3.org/2000/svg">
  <path id="path18" style="fill:#000000;fill-opacity:1;fill-rule:evenodd;stroke:none" d="M 5998.88,5749.96 6997.2,4016.02 h 308.63 l -998.31,1733.94 h -308.64" transform="matrix(0.133333, 0, 0, -0.133333, 0, 794.693359)"/>
  <path id="path20" style="fill:#000000;fill-opacity:1;fill-rule:evenodd;stroke:none" d="m 5467.14,4016.02 h 308.63 L 5361.69,4732 c -321.76,564.74 -551.67,1228.2 -1320.1,1228.2 -597.58,0 -1077.07,-486.06 -1077.07,-1077.1 0,-597.82 479.49,-1077.27 1077.07,-1077.27 276.06,0 538.55,98.43 735.86,288.94 l -144.6,249.8 c -150.92,-164.27 -361.35,-262.91 -591.26,-262.91 -439.88,0 -794.67,361.13 -794.67,801.44 0,439.87 354.79,794.72 794.67,794.72 197.31,0 387.6,-72.41 532.21,-203.68 170.61,-151.17 433.53,-663.45 564.78,-880.19 l 328.56,-577.93" transform="matrix(0.133333, 0, 0, -0.133333, 0, 794.693359)"/>
  <path id="path22" style="fill:#000000;fill-opacity:1;fill-rule:evenodd;stroke:none" d="M 5230.45,5749.96 6235.57,4016.02 h 308.64 l -998.32,1733.94 h -315.44" transform="matrix(0.133333, 0, 0, -0.133333, 0, 794.693359)"/>
</svg>